<svg id="Layer_1" data-name="Layer 1" xmlns="http://www.w3.org/2000/svg" viewBox="0 0 2162.14 1868.86"><defs><style>.cls-1{fill:#40a629;}.cls-2{fill:none;stroke:#40a629;stroke-miterlimit:10;stroke-width:2px;}</style></defs><path class="cls-1" d="M417.61,532.23a18.49,18.49,0,0,1,5.57.75,8.8,8.8,0,0,1,3.49,1.89.77.77,0,0,1,.28.36,1.72,1.72,0,0,1,.05.44V542h-4.25a.51.51,0,0,1-.37-.14.5.5,0,0,1-.15-.38v-5.1l1.28,1.94a8.66,8.66,0,0,0-2.55-1.13,12.72,12.72,0,0,0-3.35-.38,12,12,0,0,0-2.76.28,5.81,5.81,0,0,0-2.05.88,3.87,3.87,0,0,0-1.28,1.43,4.35,4.35,0,0,0-.42,1.94v1a4.93,4.93,0,0,0,.35,1.91,3.23,3.23,0,0,0,1.32,1.42,13.23,13.23,0,0,0,2.81,1.15l4.53,1.37a21.54,21.54,0,0,1,3.68,1.37,8,8,0,0,1,2.38,1.7,5.75,5.75,0,0,1,1.28,2.17,9.54,9.54,0,0,1,.4,2.88v1.93a8,8,0,0,1-1.39,4.67,8.84,8.84,0,0,1-4,3A17.11,17.11,0,0,1,416.1,567a26.69,26.69,0,0,1-4.32-.33,17.28,17.28,0,0,1-3.49-.92,7.23,7.23,0,0,1-2.33-1.4,1.54,1.54,0,0,1-.22-.35,1.48,1.48,0,0,1-.07-.5v-4.05h.81a13.9,13.9,0,0,0,4.41,2.29,19.5,19.5,0,0,0,5.49.68,8.22,8.22,0,0,0,4.86-1.2A3.72,3.72,0,0,0,422.9,558v-1.37a3.87,3.87,0,0,0-.36-1.75,3.24,3.24,0,0,0-1.32-1.27,13.65,13.65,0,0,0-2.9-1.13l-4.53-1.37a16.85,16.85,0,0,1-3.73-1.51,8.69,8.69,0,0,1-2.33-1.89,6,6,0,0,1-1.23-2.24,9.07,9.07,0,0,1-.36-2.62v-2a7.45,7.45,0,0,1,.83-3.51,8.3,8.3,0,0,1,2.34-2.76,10.54,10.54,0,0,1,3.61-1.8A16.65,16.65,0,0,1,417.61,532.23Z"/><path class="cls-1" d="M439.41,540.91a.45.45,0,0,1,.28.07.91.91,0,0,1,.17.17.5.5,0,0,1,.07.28v17a3.17,3.17,0,0,0,.8,2.36,2.91,2.91,0,0,0,2.17.81,8.63,8.63,0,0,0,2.1-.26,7.72,7.72,0,0,0,2-.83,13.75,13.75,0,0,0,1.94-1.39,12.51,12.51,0,0,0,1.86-2V562h-1.46a15.73,15.73,0,0,1-2.13,2.47,7.81,7.81,0,0,1-5.66,2.2,7.3,7.3,0,0,1-2.74-.5,5.52,5.52,0,0,1-2.07-1.44,6.68,6.68,0,0,1-1.32-2.22,7.93,7.93,0,0,1-.47-2.83V540.91h4.48Zm15.14,0a.48.48,0,0,1,.29.07.65.65,0,0,1,.16.17.43.43,0,0,1,.07.28v24.68h-4.48a.59.59,0,0,1-.26-.07.79.79,0,0,1-.19-.17.52.52,0,0,1-.07-.28V540.91h4.48Z"/><path class="cls-1" d="M468.28,566.11H463.8a.75.75,0,0,1-.23,0,.33.33,0,0,1-.26-.26.75.75,0,0,1,0-.23V540.91h4.49a.45.45,0,0,1,.28.07.65.65,0,0,1,.16.17.43.43,0,0,1,.07.28v24.68Zm15.39,0h-4.49a.59.59,0,0,1-.26-.07.74.74,0,0,1-.18-.17.44.44,0,0,1-.08-.28v-17a3.47,3.47,0,0,0-.8-2.52,3.14,3.14,0,0,0-2.36-.82,7.06,7.06,0,0,0-1.91.28,9.06,9.06,0,0,0-2,.87,14.05,14.05,0,0,0-2,1.46,17.64,17.64,0,0,0-2,2.1v-4.86H469a14.41,14.41,0,0,1,2.26-2.45A10.24,10.24,0,0,1,474,541a8.13,8.13,0,0,1,3.09-.59,7.33,7.33,0,0,1,2.78.5,5.49,5.49,0,0,1,2.08,1.46,6.7,6.7,0,0,1,1.3,2.29,8.87,8.87,0,0,1,.45,2.88v18.59Z"/><path class="cls-1" d="M622.58,567.06h-4.44a.48.48,0,0,1-.26-.07.58.58,0,0,1-.19-.19.56.56,0,0,1-.07-.26V534H624a1.15,1.15,0,0,1,.4.07.83.83,0,0,1,.31.26,2,2,0,0,1,.28.62c.57,1.29,1.13,2.6,1.68,3.94s1.1,2.68,1.65,4,1.1,2.72,1.65,4.11,1.1,2.79,1.65,4.22,1.13,2.89,1.73,4.36l-2.17-2.45h3.25l-2.22,2.45q.9-2.26,1.77-4.48l1.73-4.39c.56-1.44,1.13-2.88,1.69-4.31s1.14-2.85,1.7-4.25,1.13-2.79,1.7-4.18h6.61a.59.59,0,0,1,.26.07.55.55,0,0,1,.18.19.5.5,0,0,1,.08.26v32.51h-4.49a.48.48,0,0,1-.26-.07.59.59,0,0,1-.26-.45v-6.37c0-1,0-2,0-3s0-2,0-3,0-2,.09-3.11.11-2.17.19-3.31.16-2.33.26-3.61.19-2.61.28-4l.94,1.37h-3.2l1.84-1.46c-.54,1.35-1.11,2.74-1.73,4.17s-1.22,2.89-1.81,4.37-1.2,2.94-1.8,4.38-1.18,2.85-1.74,4.2-1.1,2.64-1.61,3.87h-3.63a.58.58,0,0,1-.28-.07.76.76,0,0,1-.29-.35q-.51-1.36-1.29-3.21c-.52-1.23-1.06-2.56-1.63-4s-1.16-2.91-1.79-4.43-1.25-3-1.87-4.53-1.2-2.94-1.77-4.32l1.84,1.37h-3.16l.8-1.42q.2,2.08.36,4c.11,1.27.2,2.48.28,3.61s.13,2.23.17,3.3.06,2.12.09,3.14.05,2,.05,3v9.93Z"/><path class="cls-1" d="M666.27,541.35a12.4,12.4,0,0,1,4.48.78,10.33,10.33,0,0,1,3.49,2.16,9.21,9.21,0,0,1,2.24,3.31,11,11,0,0,1,.78,4.22v5.1a10.79,10.79,0,0,1-1.41,5.56,9.92,9.92,0,0,1-3.92,3.76,11.83,11.83,0,0,1-5.66,1.34,12.36,12.36,0,0,1-4.48-.78,10.4,10.4,0,0,1-3.5-2.17,9.52,9.52,0,0,1-2.24-3.3,11.08,11.08,0,0,1-.77-4.22V552a10.83,10.83,0,0,1,1.41-5.57,9.9,9.9,0,0,1,3.92-3.75A11.69,11.69,0,0,1,666.27,541.35Zm.19,4.57a6.47,6.47,0,0,0-3.35.81,5.39,5.39,0,0,0-2.1,2.21,7,7,0,0,0-.73,3.26v4.58a7.39,7.39,0,0,0,.45,2.64,5.92,5.92,0,0,0,1.25,2,5.18,5.18,0,0,0,1.76,1.13,6.32,6.32,0,0,0,2.34.42,6.47,6.47,0,0,0,3.37-.82,5.33,5.33,0,0,0,2.1-2.24,7,7,0,0,0,.71-3.21v-4.58a8.35,8.35,0,0,0-.4-2.73,5.18,5.18,0,0,0-1.2-2,4.87,4.87,0,0,0-1.82-1.13A7.12,7.12,0,0,0,666.46,545.92Z"/><path class="cls-1" d="M689.58,567.06h-4.49l-.23,0a.42.42,0,0,1-.17-.1.32.32,0,0,1-.09-.16.82.82,0,0,1,0-.24V541.87h4.48a.45.45,0,0,1,.28.07.85.85,0,0,1,.17.16.55.55,0,0,1,.07.28v24.68Zm15.38,0h-4.48a.46.46,0,0,1-.26-.07.77.77,0,0,1-.19-.16.48.48,0,0,1-.07-.29v-17a3.55,3.55,0,0,0-.8-2.53,3.17,3.17,0,0,0-2.36-.82,7,7,0,0,0-1.91.28,8.33,8.33,0,0,0-2,.88,13,13,0,0,0-2,1.46,15.62,15.62,0,0,0-2,2.1V546h1.51a14.13,14.13,0,0,1,2.27-2.46,9.74,9.74,0,0,1,2.66-1.62,8,8,0,0,1,3.09-.59,7.42,7.42,0,0,1,2.79.49,5.46,5.46,0,0,1,2.07,1.46,6.7,6.7,0,0,1,1.3,2.29,8.87,8.87,0,0,1,.45,2.88v18.59Z"/><path class="cls-1" d="M848,532.61h22.69a.48.48,0,0,1,.52.52v4H848.52a.56.56,0,0,1-.26-.07.58.58,0,0,1-.19-.19.48.48,0,0,1-.07-.26v-4Zm14.25,33h-4.77a.48.48,0,0,1-.52-.52V535.06h5.71l-.42,1v29.54Z"/><path class="cls-1" d="M881.4,540.44a.48.48,0,0,1,.29.07.87.87,0,0,1,.16.17.43.43,0,0,1,.07.28v17a3.21,3.21,0,0,0,.8,2.36,2.93,2.93,0,0,0,2.18.8,8,8,0,0,0,2.09-.26,7.55,7.55,0,0,0,2-.82,13.68,13.68,0,0,0,1.93-1.39,12.11,12.11,0,0,0,1.87-2v4.85h-1.47a15.84,15.84,0,0,1-2.12,2.48,8.35,8.35,0,0,1-2.5,1.63,8.17,8.17,0,0,1-3.16.57,7.27,7.27,0,0,1-2.74-.5,5.56,5.56,0,0,1-2.08-1.44,7,7,0,0,1-1.32-2.22,8.19,8.19,0,0,1-.47-2.83V540.44h4.48Zm15.15,0a.45.45,0,0,1,.28.07.69.69,0,0,1,.17.17.5.5,0,0,1,.07.28v24.68h-4.48a.53.53,0,0,1-.26-.07.79.79,0,0,1-.19-.17.45.45,0,0,1-.07-.28V540.44h4.48Z"/><path class="cls-1" d="M915.38,539.92a11.28,11.28,0,0,1,5.3,1.21,9,9,0,0,1,3.71,3.53,11.41,11.41,0,0,1,1.37,5.83v3.63a.53.53,0,0,1-.07.26.46.46,0,0,1-.17.17.67.67,0,0,1-.28.05H908.68l-.43-3.35h12.6v-.85a10.89,10.89,0,0,0-.35-2.93,4,4,0,0,0-1.16-1.93,3.7,3.7,0,0,0-1.65-1,8,8,0,0,0-2.31-.31,5.81,5.81,0,0,0-4.27,1.47c-1,1-1.49,2.58-1.49,4.81v5.19a7.34,7.34,0,0,0,.38,2.5,5,5,0,0,0,1.08,1.84,5.36,5.36,0,0,0,2.31,1.32,11.5,11.5,0,0,0,3.35.43,20.9,20.9,0,0,0,3-.19,17.33,17.33,0,0,0,2.43-.54,19.14,19.14,0,0,0,2.26-.88h.8v3.73a.43.43,0,0,1,0,.19.77.77,0,0,1-.14.19,5,5,0,0,1-1.7.87,17.78,17.78,0,0,1-3,.73,23.81,23.81,0,0,1-3.79.29,17,17,0,0,1-5-.69,10.21,10.21,0,0,1-3.77-2,8.43,8.43,0,0,1-2.34-3.28,11.94,11.94,0,0,1-.8-4.51v-5.1a12.46,12.46,0,0,1,.8-4.6,9,9,0,0,1,2.27-3.35,9.63,9.63,0,0,1,3.44-2A12.84,12.84,0,0,1,915.38,539.92Z"/><path class="cls-1" d="M1068.47,532.36h4.81a.57.57,0,0,1,.31.07.7.7,0,0,1,.21.21.71.71,0,0,1,.1.38c.28,1.32.58,2.75.89,4.27s.65,3.16,1,4.91.71,3.59,1.09,5.54.75,4,1.11,6.14.71,4.37,1.06,6.7l-1.18-.66h2.92l-1.08.61q.66-2.88,1.51-6.46t1.84-7.41q1-3.82,1.91-7.5c.61-2.46,1.17-4.72,1.68-6.8h4.86a.48.48,0,0,1,.26.07.59.59,0,0,1,.18.17.67.67,0,0,1,.12.28c.44,1.64.91,3.41,1.39,5.31s1,3.84,1.54,5.83,1,4,1.55,5.92,1,3.85,1.42,5.66.8,3.47,1.09,5l-1.09-.66h2.78l-.94.47c.35-2.42.68-4.66,1-6.7s.65-4,1-5.73.61-3.5.94-5.17.66-3.35,1-5,.69-3.49,1.06-5.38h4.82a.68.68,0,0,1,.35.07.44.44,0,0,1,.17.24.89.89,0,0,1,0,.4c-.22,1-.49,2.3-.81,3.77s-.66,3.13-1,4.93-.77,3.72-1.18,5.74-.84,4-1.28,6.13-.86,4.12-1.27,6.13-.79,3.94-1.13,5.76h-6.7a.74.74,0,0,1-.57-.19,1.44,1.44,0,0,1-.33-.66c-.41-1.67-.87-3.48-1.39-5.45s-1.07-4.06-1.65-6.3-1.16-4.58-1.73-7-1.11-5-1.65-7.67L1091,540h-3.12l1.42-1.79q-.66,3.21-1.42,6.51c-.5,2.21-1,4.35-1.51,6.44s-1,4.07-1.48,5.92l-1.3,5c-.38,1.45-.68,2.61-.9,3.49h-6.74a.74.74,0,0,1-.57-.19,1.2,1.2,0,0,1-.28-.66c-.32-1.51-.66-3.14-1-4.88s-.73-3.56-1.11-5.43-.76-3.78-1.15-5.73-.79-3.92-1.18-5.9-.78-3.91-1.16-5.8c-.13-.63-.27-1.36-.45-2.2S1068.66,533.12,1068.47,532.36Z"/><path class="cls-1" d="M1125,539.67a11.4,11.4,0,0,1,5.3,1.21,9,9,0,0,1,3.71,3.54,11.37,11.37,0,0,1,1.37,5.82v3.64a.59.59,0,0,1-.07.26.51.51,0,0,1-.17.16.67.67,0,0,1-.28.05H1118.3l-.43-3.35h12.6v-.85a10.94,10.94,0,0,0-.35-2.93,4.06,4.06,0,0,0-1.16-1.93,3.68,3.68,0,0,0-1.65-1A7.64,7.64,0,0,0,1125,544a5.85,5.85,0,0,0-4.27,1.46q-1.49,1.47-1.49,4.81v5.19a7.34,7.34,0,0,0,.38,2.5,5,5,0,0,0,1.08,1.84,5.48,5.48,0,0,0,2.31,1.33,11.88,11.88,0,0,0,3.35.42,20.9,20.9,0,0,0,3.05-.19,14.9,14.9,0,0,0,2.43-.54,21,21,0,0,0,2.26-.87h.8v3.72a.41.41,0,0,1,0,.19.62.62,0,0,1-.14.19,4.79,4.79,0,0,1-1.7.87,17.72,17.72,0,0,1-3,.74,25.08,25.08,0,0,1-3.79.28,17,17,0,0,1-5-.69,10.21,10.21,0,0,1-3.77-2,8.36,8.36,0,0,1-2.34-3.28,11.94,11.94,0,0,1-.8-4.51v-5.09a12.42,12.42,0,0,1,.8-4.6,8.85,8.85,0,0,1,2.27-3.35,9.65,9.65,0,0,1,3.44-2A12.84,12.84,0,0,1,1125,539.67Z"/><path class="cls-1" d="M1150.24,539.67a8.41,8.41,0,0,1,3,.5,7.73,7.73,0,0,1,2.39,1.42,9.61,9.61,0,0,1,1.86,2.24h1.46v5.28a11.92,11.92,0,0,0-3.44-3.49,7.09,7.09,0,0,0-3.78-1.13,4.71,4.71,0,0,0-2.45.61,4,4,0,0,0-1.6,1.82,6.84,6.84,0,0,0-.57,3v6a7.37,7.37,0,0,0,.35,2.38,4.77,4.77,0,0,0,.92,1.63,4.16,4.16,0,0,0,1.47.87,5.34,5.34,0,0,0,1.88.31,7.21,7.21,0,0,0,2.5-.45,7.75,7.75,0,0,0,2.43-1.49,12.23,12.23,0,0,0,2.29-2.69v5.2h-1.46a9.65,9.65,0,0,1-1.91,2.28,7.74,7.74,0,0,1-2.46,1.47,9.1,9.1,0,0,1-6.22-.12,6.9,6.9,0,0,1-2.55-1.82,8.48,8.48,0,0,1-1.65-2.9,11.57,11.57,0,0,1-.59-3.87v-7.6a12,12,0,0,1,.59-3.94,8.82,8.82,0,0,1,1.65-3,7,7,0,0,1,2.57-1.86A8.62,8.62,0,0,1,1150.24,539.67ZM1162.7,530a.52.52,0,0,1,.28.07.65.65,0,0,1,.16.17.44.44,0,0,1,.08.28v34.87h-4.49a.48.48,0,0,1-.26-.07.63.63,0,0,1-.19-.17.5.5,0,0,1-.07-.28V530h4.49Z"/><path class="cls-1" d="M1299.79,534.74h22.69a.52.52,0,0,1,.38.14.5.5,0,0,1,.14.38v4h-22.69a.46.46,0,0,1-.26-.07.58.58,0,0,1-.19-.19.48.48,0,0,1-.07-.26v-4Zm14.25,33h-4.77a.5.5,0,0,1-.37-.14.5.5,0,0,1-.15-.38V537.19h5.71l-.42,1v29.54Z"/><path class="cls-1" d="M1330.22,567.77a.48.48,0,0,1-.26-.07.63.63,0,0,1-.19-.17.5.5,0,0,1-.07-.28V532.38h4.49a.47.47,0,0,1,.28.07.65.65,0,0,1,.16.17.43.43,0,0,1,.07.28v34.87h-4.48Zm3.73-16.19v-4.86h1.51a20.75,20.75,0,0,1,1.67-1.91,10.76,10.76,0,0,1,1.87-1.48,8.63,8.63,0,0,1,2.1-1,8.3,8.3,0,0,1,2.38-.33,7.33,7.33,0,0,1,2.78.5,5.49,5.49,0,0,1,2.08,1.46,6.7,6.7,0,0,1,1.3,2.29,8.87,8.87,0,0,1,.45,2.88v18.59h-4.49a.48.48,0,0,1-.26-.07.77.77,0,0,1-.19-.17.5.5,0,0,1-.07-.28v-17a3.48,3.48,0,0,0-.8-2.53,3.14,3.14,0,0,0-2.36-.82,7.06,7.06,0,0,0-1.91.28,9.06,9.06,0,0,0-2,.87,14.16,14.16,0,0,0-2,1.47A16.78,16.78,0,0,0,1334,551.58Z"/><path class="cls-1" d="M1362.45,542.57a.52.52,0,0,1,.28.07l.17.17a.52.52,0,0,1,.07.28v17a3.16,3.16,0,0,0,.8,2.35,2.91,2.91,0,0,0,2.17.81,8.63,8.63,0,0,0,2.1-.26,7.87,7.87,0,0,0,2-.83,13.68,13.68,0,0,0,1.93-1.39,11.74,11.74,0,0,0,1.87-2v4.86h-1.46a15.29,15.29,0,0,1-2.13,2.47,8.23,8.23,0,0,1-2.5,1.63,8.14,8.14,0,0,1-3.16.57,7.27,7.27,0,0,1-2.74-.5,5.52,5.52,0,0,1-2.07-1.44,6.74,6.74,0,0,1-1.32-2.21,8,8,0,0,1-.47-2.84V542.57h4.48Zm15.14,0a.56.56,0,0,1,.29.07,1.29,1.29,0,0,1,.16.17.45.45,0,0,1,.07.28v24.68h-4.48a.48.48,0,0,1-.26-.07.63.63,0,0,1-.19-.17.43.43,0,0,1-.07-.28V542.57h4.48Z"/><path class="cls-1" d="M1536.45,533.08h20.43a.45.45,0,0,1,.28.07,1.29,1.29,0,0,1,.17.16.56.56,0,0,1,.07.29v4H1537a.53.53,0,0,1-.26-.07.58.58,0,0,1-.19-.19.48.48,0,0,1-.07-.26v-4Zm7.88,33h-4.72a.56.56,0,0,1-.26-.07.79.79,0,0,1-.19-.17.45.45,0,0,1-.07-.28v-30h5.71l-.47,1v29.54Zm-2.46-17.79H1555a.54.54,0,0,1,.38.14.52.52,0,0,1,.14.38v4.06h-13.69Z"/><path class="cls-1" d="M1569.15,566.11h-4.72a.78.78,0,0,1-.24,0,.26.26,0,0,1-.16-.09.37.37,0,0,1-.1-.17.79.79,0,0,1,0-.23V540.91h4.72a.45.45,0,0,1,.28.07.65.65,0,0,1,.16.17.43.43,0,0,1,.08.28v24.68Zm-.81-20.72H1570a14.65,14.65,0,0,1,1.77-2.85,5.72,5.72,0,0,1,2.08-1.61,7.2,7.2,0,0,1,3.92-.37,2.62,2.62,0,0,1,.82.3c.16.07.25.15.28.26a1.22,1.22,0,0,1,.05.4v4.39h-.75a8.87,8.87,0,0,0-1.06-.23,7.91,7.91,0,0,0-1.35-.1,6.23,6.23,0,0,0-2.71.57,8.47,8.47,0,0,0-2.34,1.7,21.07,21.07,0,0,0-2.36,2.92Z"/><path class="cls-1" d="M1587.55,565.59V545.44h-3.92a.54.54,0,0,1-.38-.14.52.52,0,0,1-.14-.38v-4H1592a.45.45,0,0,1,.28.07.79.79,0,0,1,.17.19.59.59,0,0,1,.07.26v24.68h-4.48a.56.56,0,0,1-.36-.14A.48.48,0,0,1,1587.55,565.59Zm-1-36.33h6.18a.48.48,0,0,1,.52.52v5.14h-6.18a.48.48,0,0,1-.52-.52Z"/><path class="cls-1" d="M1746.23,529.62a18.16,18.16,0,0,1,5.57.76,8.68,8.68,0,0,1,3.49,1.88.77.77,0,0,1,.28.36,1.75,1.75,0,0,1,0,.45v6.27h-4.25a.54.54,0,0,1-.38-.14.52.52,0,0,1-.14-.38v-5.09l1.28,1.93a8.66,8.66,0,0,0-2.55-1.13,13.15,13.15,0,0,0-3.35-.38,12.61,12.61,0,0,0-2.76.28,5.81,5.81,0,0,0-2,.88,3.82,3.82,0,0,0-1.28,1.44,4.28,4.28,0,0,0-.42,1.93v1a4.89,4.89,0,0,0,.35,1.91,3.23,3.23,0,0,0,1.32,1.42,12.73,12.73,0,0,0,2.81,1.15l4.53,1.37a21.54,21.54,0,0,1,3.68,1.37,8,8,0,0,1,2.38,1.7,5.89,5.89,0,0,1,1.28,2.17,9.54,9.54,0,0,1,.4,2.88v1.93a8,8,0,0,1-1.39,4.67,8.84,8.84,0,0,1-4,3,17.11,17.11,0,0,1-6.35,1.06,26.69,26.69,0,0,1-4.32-.33,17.28,17.28,0,0,1-3.49-.92,7.39,7.39,0,0,1-2.34-1.39,2.36,2.36,0,0,1-.21-.36,1.46,1.46,0,0,1-.07-.49V556.8h.8a14,14,0,0,0,4.42,2.29,19.5,19.5,0,0,0,5.49.68,8.22,8.22,0,0,0,4.86-1.2,3.71,3.71,0,0,0,1.65-3.14v-1.37a3.8,3.8,0,0,0-.35-1.74,3.26,3.26,0,0,0-1.32-1.28,14.22,14.22,0,0,0-2.9-1.13l-4.53-1.37a16.65,16.65,0,0,1-3.73-1.51,8.56,8.56,0,0,1-2.34-1.89,6,6,0,0,1-1.22-2.24,9.07,9.07,0,0,1-.36-2.62v-2a7.45,7.45,0,0,1,.83-3.51,8.3,8.3,0,0,1,2.34-2.76,10.49,10.49,0,0,1,3.6-1.8A17.1,17.1,0,0,1,1746.23,529.62Z"/><path class="cls-1" d="M1767.51,556.66a2.72,2.72,0,0,0,.8,2.1,3.47,3.47,0,0,0,2.41.73,10.55,10.55,0,0,0,2.85-.38,9.28,9.28,0,0,0,2.67-1.27,15.68,15.68,0,0,0,2.73-2.46v4.11h-1.41a7.78,7.78,0,0,1-4.53,4,10.15,10.15,0,0,1-3.35.52,8.25,8.25,0,0,1-3.82-.82,6,6,0,0,1-2.48-2.34,7.07,7.07,0,0,1-.87-3.59v-1.55a7,7,0,0,1,.52-2.79,6,6,0,0,1,1.48-2.1,6.73,6.73,0,0,1,2.34-1.34,9.19,9.19,0,0,1,3.06-.47h9.21c.25,0,.44.19.59.56a5.06,5.06,0,0,1,.26,1.35c0,.52,0,1,0,1.44h-9.29a5,5,0,0,0-1.44.18,2.6,2.6,0,0,0-1,.62,3.19,3.19,0,0,0-.54.87,3,3,0,0,0-.21,1.16Zm15.57-9.58v10.1a3.16,3.16,0,0,0,.12.94,1.93,1.93,0,0,0,.3.61,1.7,1.7,0,0,0,.55.29,2.55,2.55,0,0,0,.73.09H1786V563a.5.5,0,0,1-.14.38.51.51,0,0,1-.37.14h-2a6.49,6.49,0,0,1-2.19-.35,4.72,4.72,0,0,1-1.7-1.07,4.77,4.77,0,0,1-1.13-1.72,6.22,6.22,0,0,1-.4-2.33V546.94a5.78,5.78,0,0,0-.52-2.67,2.92,2.92,0,0,0-1.7-1.37,10.74,10.74,0,0,0-3.26-.4,24.19,24.19,0,0,0-2.61.14,21.77,21.77,0,0,0-2.46.43,23.65,23.65,0,0,0-2.43.71h-.8v-3.92a.63.63,0,0,1,0-.28.42.42,0,0,1,.09-.14,4.43,4.43,0,0,1,1.51-.67,23,23,0,0,1,3-.66,24.2,24.2,0,0,1,3.65-.28,18.59,18.59,0,0,1,4.72.52,8,8,0,0,1,3.26,1.63,6.62,6.62,0,0,1,1.89,2.85A13.17,13.17,0,0,1,1783.08,547.08Z"/><path class="cls-1" d="M1788.41,538.3h18a.48.48,0,0,1,.52.52V543h-18a.43.43,0,0,1-.19,0,.48.48,0,0,1-.16-.12.52.52,0,0,1-.12-.17.41.41,0,0,1,0-.18V538.3Zm18.5,20.43V563a.54.54,0,0,1-.14.38.56.56,0,0,1-.38.14h-3.68a14,14,0,0,1-4.18-.57,7.8,7.8,0,0,1-3.07-1.74,7.7,7.7,0,0,1-1.91-3,13,13,0,0,1-.66-4.39V530.47h4.49a.48.48,0,0,1,.26.07.55.55,0,0,1,.18.19.48.48,0,0,1,.07.26v22.32a8.69,8.69,0,0,0,.34,2.66,4.19,4.19,0,0,0,1,1.73,3.53,3.53,0,0,0,1.51.8,8.49,8.49,0,0,0,2.17.23h4Z"/><polygon class="cls-2" points="1098.42 224.4 150.48 588.47 2046.35 588.47 1098.42 224.4"/><rect class="cls-2" x="297.18" y="588.73" width="1600.73" height="189.14"/><rect class="cls-2" x="297.18" y="778.69" width="1600.73" height="189.14"/><rect class="cls-2" x="297.18" y="967.48" width="1600.73" height="189.14"/><rect class="cls-2" x="297.18" y="1156.51" width="1600.73" height="189.14"/><rect class="cls-2" x="298.05" y="1345.54" width="1600.73" height="189.14"/><rect class="cls-2" x="371.83" y="588.73" width="88.42" height="23.46"/><rect class="cls-2" x="399.21" y="612.19" width="88.42" height="23.46"/><rect class="cls-2" x="426.6" y="635.65" width="88.42" height="23.46"/><rect class="cls-2" x="453.98" y="659.11" width="88.42" height="23.46"/><rect class="cls-2" x="481.37" y="682.58" width="88.42" height="23.46"/><rect class="cls-2" x="508.75" y="706.04" width="88.42" height="23.46"/><rect class="cls-2" x="536.13" y="729.5" width="88.42" height="23.46"/><rect class="cls-2" x="563.52" y="752.96" width="88.42" height="23.46"/><rect class="cls-2" x="396.08" y="967.86" width="88.42" height="23.46"/><rect class="cls-2" x="423.46" y="991.32" width="88.42" height="23.46"/><rect class="cls-2" x="450.85" y="1014.78" width="88.42" height="23.46"/><rect class="cls-2" x="478.23" y="1038.24" width="88.42" height="23.46"/><rect class="cls-2" x="505.62" y="1061.71" width="88.42" height="23.46"/><rect class="cls-2" x="533" y="1085.17" width="88.42" height="23.46"/><rect class="cls-2" x="560.39" y="1108.63" width="88.42" height="23.46"/><rect class="cls-2" x="587.77" y="1132.09" width="88.42" height="23.46"/><rect class="cls-2" x="1731.39" y="1157.23" width="88.42" height="23.46" transform="translate(3551.2 2337.93) rotate(-180)"/><rect class="cls-2" x="1704.01" y="1180.69" width="88.42" height="23.46" transform="translate(3496.43 2384.85) rotate(-180)"/><rect class="cls-2" x="1676.62" y="1204.16" width="88.42" height="23.46" transform="translate(3441.66 2431.77) rotate(-180)"/><rect class="cls-2" x="1649.24" y="1227.62" width="88.42" height="23.46" transform="translate(3386.89 2478.7) rotate(-180)"/><rect class="cls-2" x="1621.85" y="1251.08" width="88.42" height="23.46" transform="translate(3332.12 2525.62) rotate(-180)"/><rect class="cls-2" x="1594.47" y="1274.54" width="88.42" height="23.46" transform="translate(3277.36 2572.54) rotate(-180)"/><rect class="cls-2" x="1567.08" y="1298" width="88.42" height="23.46" transform="translate(3222.59 2619.46) rotate(-180)"/><rect class="cls-2" x="1539.7" y="1321.46" width="88.42" height="23.46" transform="translate(3167.82 2666.39) rotate(-180)"/><rect class="cls-2" x="412.9" y="1346.22" width="88.42" height="23.46"/><rect class="cls-2" x="440.29" y="1369.68" width="88.42" height="23.46"/><rect class="cls-2" x="467.67" y="1393.15" width="88.42" height="23.46"/><rect class="cls-2" x="495.06" y="1416.61" width="88.42" height="23.46"/><rect class="cls-2" x="522.44" y="1440.07" width="88.42" height="23.46"/><rect class="cls-2" x="549.83" y="1463.53" width="88.42" height="23.46"/><rect class="cls-2" x="577.21" y="1486.99" width="88.42" height="23.46"/><rect class="cls-2" x="604.6" y="1510.45" width="88.42" height="23.46"/><rect class="cls-2" x="1745.08" y="779.42" width="88.42" height="23.46" transform="translate(3578.59 1582.3) rotate(-180)"/><rect class="cls-2" x="1717.7" y="802.88" width="88.42" height="23.46" transform="translate(3523.82 1629.22) rotate(-180)"/><rect class="cls-2" x="1690.31" y="826.34" width="88.42" height="23.46" transform="translate(3469.05 1676.14) rotate(-180)"/><rect class="cls-2" x="1662.93" y="849.8" width="88.42" height="23.46" transform="translate(3414.28 1723.07) rotate(-180)"/><rect class="cls-2" x="1635.55" y="873.26" width="88.42" height="23.46" transform="translate(3359.51 1769.99) rotate(-180)"/><rect class="cls-2" x="1608.16" y="896.73" width="88.42" height="23.46" transform="translate(3304.74 1816.91) rotate(-180)"/><rect class="cls-2" x="1580.78" y="920.19" width="88.42" height="23.46" transform="translate(3249.97 1863.84) rotate(-180)"/><rect class="cls-2" x="1553.39" y="943.65" width="88.42" height="23.46" transform="translate(3195.2 1910.76) rotate(-180)"/></svg>